<?xml version="1.0" standalone="no"?>
<!DOCTYPE svg PUBLIC "-//W3C//DTD SVG 20010904//EN"
 "http://www.w3.org/TR/2001/REC-SVG-20010904/DTD/svg10.dtd">
<svg version="1.0" xmlns="http://www.w3.org/2000/svg"
 width="700.000000pt" height="700.000000pt" viewBox="0 0 700.000000 700.000000"
 preserveAspectRatio="xMidYMid meet">
<metadata>
Created by potrace 1.14, written by Peter Selinger 2001-2017
</metadata>
<g transform="translate(0.000000,700.000000) scale(0.100000,-0.100000)"
fill="#000000" stroke="none">
<path d="M2227 5904 c-1 -1 -40 -4 -87 -8 -112 -7 -173 -17 -329 -50 -272 -59
-592 -211 -861 -410 -98 -73 -327 -293 -396 -381 -21 -27 -45 -56 -52 -63 -37
-40 -171 -257 -231 -373 -113 -224 -191 -446 -226 -649 -3 -17 -8 -45 -11 -62
-49 -274 -39 -654 27 -953 107 -484 379 -947 754 -1280 341 -303 786 -508
1215 -560 25 -4 61 -9 80 -12 66 -12 4740 -10 4749 1 12 16 94 349 106 431 4
22 8 47 10 55 23 83 26 399 6 504 -31 157 -111 328 -224 479 -66 87 -255 282
-401 413 -48 43 -101 90 -116 104 -32 29 -72 65 -200 180 -52 47 -100 90 -106
95 -6 6 -49 44 -95 85 -138 123 -184 165 -189 170 -3 3 -68 62 -145 130 -77
69 -160 143 -185 166 -25 23 -97 87 -160 144 -63 57 -153 137 -199 179 -112
101 -119 107 -208 187 -74 66 -182 163 -193 174 -3 3 -68 61 -145 130 -77 69
-145 129 -151 135 -6 5 -49 44 -95 85 -197 175 -264 262 -276 357 -7 61 9 119
50 180 l32 48 1288 1 c984 0 1284 -3 1275 -12 -7 -6 -76 -54 -153 -106 -77
-52 -185 -126 -240 -163 -55 -38 -133 -91 -172 -118 -40 -27 -73 -52 -73 -56
0 -3 147 -6 328 -6 l327 0 1 -115 c1 -134 -6 -173 -46 -258 -49 -102 -100
-147 -379 -329 -141 -91 -300 -195 -353 -230 -53 -35 -99 -66 -101 -71 -3 -4
104 -7 236 -8 280 0 320 -5 402 -44 75 -37 123 -80 168 -150 59 -94 69 -142
73 -355 l4 -190 178 -178 179 -179 -2 419 c-2 471 -8 520 -72 652 -34 69 -87
129 -177 204 l-30 24 30 30 c113 114 184 238 224 393 7 25 14 54 17 65 6 24
13 1113 7 1135 -4 14 -246 16 -2344 16 -1288 0 -2342 -1 -2343 -2z m398 -388
c-3 -11 -8 -32 -11 -45 -3 -14 -7 -28 -10 -33 -3 -4 -11 -43 -18 -86 -36 -229
26 -452 179 -642 72 -88 132 -149 280 -285 61 -55 141 -129 180 -165 38 -36
124 -115 190 -175 66 -60 127 -116 136 -125 9 -8 62 -58 119 -110 57 -52 131
-120 164 -151 34 -31 73 -67 87 -80 28 -25 203 -186 249 -229 15 -14 71 -65
125 -115 54 -49 110 -101 125 -115 15 -14 69 -63 120 -110 51 -47 107 -98 125
-115 17 -16 78 -73 136 -125 57 -52 113 -104 125 -115 11 -11 63 -58 114 -105
51 -47 105 -96 119 -110 14 -14 75 -70 136 -125 192 -175 266 -249 309 -305
99 -129 126 -252 88 -400 -13 -51 -58 -169 -69 -180 -2 -3 -136 -5 -297 -5
l-293 0 19 55 c11 30 22 92 25 137 11 154 -29 269 -140 408 -71 88 -124 140
-461 445 -27 25 -57 52 -66 60 -14 14 -148 136 -225 205 -16 15 -50 46 -75 69
-25 22 -92 84 -150 136 -57 52 -114 104 -126 115 -21 20 -159 147 -263 240
-30 28 -62 57 -71 65 -13 13 -201 183 -236 215 -6 6 -55 51 -109 100 -54 50
-109 99 -121 110 -12 11 -61 56 -110 100 -48 44 -95 87 -104 95 -9 8 -63 58
-120 110 -58 52 -110 100 -116 105 -6 6 -55 51 -110 100 -173 157 -334 331
-334 361 0 3 -8 18 -19 32 -25 36 -68 163 -80 237 -12 77 -6 231 13 318 8 37
32 107 53 155 l39 87 44 5 c25 3 134 6 243 6 199 2 199 2 192 -20z m929 13 c3
-3 -2 -30 -11 -60 -11 -36 -16 -90 -16 -164 -1 -127 20 -201 81 -294 33 -51
240 -266 337 -351 38 -33 168 -150 359 -324 49 -45 97 -88 106 -96 10 -8 57
-52 106 -96 49 -44 116 -105 149 -134 33 -30 62 -56 65 -59 3 -3 48 -44 100
-91 52 -47 100 -90 105 -96 6 -6 102 -93 215 -195 113 -101 207 -186 210 -189
3 -3 50 -45 105 -95 119 -107 101 -91 213 -193 50 -46 99 -91 110 -100 26 -23
189 -171 223 -202 15 -14 62 -56 105 -95 133 -118 318 -306 372 -378 57 -74
112 -186 132 -262 31 -122 16 -330 -38 -525 l-17 -65 -269 0 c-147 0 -270 3
-272 6 -2 4 3 26 12 50 64 181 67 368 7 518 -57 146 -167 278 -432 521 -58 52
-119 109 -137 125 -17 17 -76 70 -130 120 -55 49 -128 117 -163 150 -112 104
-110 102 -321 295 -63 58 -124 114 -136 125 -21 20 -190 176 -249 229 -16 15
-50 47 -75 70 -25 23 -99 91 -165 151 -66 61 -125 115 -131 120 -50 46 -310
286 -396 366 -16 15 -65 60 -109 100 -45 41 -96 88 -114 104 -17 17 -81 75
-141 129 -181 166 -289 278 -321 336 -91 161 -100 344 -24 515 l18 41 266 0
c146 -1 268 -4 271 -7z m-1834 -103 c0 -2 -7 -31 -15 -63 -8 -32 -21 -101 -28
-153 -37 -271 15 -530 149 -732 49 -74 237 -269 398 -413 49 -44 101 -91 116
-105 15 -14 64 -59 110 -100 46 -41 88 -80 94 -85 6 -6 40 -37 76 -70 36 -32
107 -97 159 -144 52 -47 102 -93 111 -101 26 -23 315 -286 346 -315 6 -5 51
-46 100 -90 48 -44 101 -92 117 -107 16 -15 63 -58 105 -95 41 -37 80 -73 86
-78 6 -6 61 -56 121 -110 61 -55 135 -123 165 -152 30 -28 64 -60 76 -70 12
-10 63 -56 114 -103 51 -47 101 -92 110 -100 16 -14 128 -116 264 -240 171
-156 200 -203 200 -325 1 -71 -3 -89 -31 -146 l-32 -65 -1243 1 c-684 1 -1252
5 -1263 8 -11 2 -42 8 -68 11 -141 19 -333 71 -432 116 -11 5 -49 21 -86 37
-315 135 -634 410 -840 723 -114 173 -232 434 -265 585 -1 6 -7 30 -14 55 -13
49 -18 70 -25 115 -3 17 -10 59 -17 95 -20 107 -15 558 7 622 2 7 7 31 10 53
3 22 10 58 16 80 6 22 12 47 14 55 2 9 15 55 30 103 78 258 224 521 399 722
216 249 466 429 761 551 75 31 105 40 105 30z"/>
<path d="M4390 5244 c0 -7 10 -17 130 -119 58 -50 107 -92 110 -95 48 -48 143
-120 159 -120 38 0 115 43 164 92 54 54 94 131 103 201 l7 47 -337 0 c-185 0
-336 -3 -336 -6z"/>
</g>
</svg>
