<svg version="1.0" xmlns="http://www.w3.org/2000/svg" width="933.33" height="933.33" viewBox="0 0 700 700"><path d="M222.7 109.6c-.1.1-4 .4-8.7.8-11.2.7-17.3 1.7-32.9 5-27.2 5.9-59.2 21.1-86.1 41-9.8 7.3-32.7 29.3-39.6 38.1-2.1 2.7-4.5 5.6-5.2 6.3-3.7 4-17.1 25.7-23.1 37.3C15.8 260.5 8 282.7 4.5 303l-1.1 6.2c-4.9 27.4-3.9 65.4 2.7 95.3 10.7 48.4 37.9 94.7 75.4 128 34.1 30.3 78.6 50.8 121.5 56 2.5.4 6.1.9 8 1.2 6.6 1.2 474 1 474.9-.1 1.2-1.6 9.4-34.9 10.6-43.1.4-2.2.8-4.7 1-5.5 2.3-8.3 2.6-39.9.6-50.4-3.1-15.7-11.1-32.8-22.4-47.9-6.6-8.7-25.5-28.2-40.1-41.3-4.8-4.3-10.1-9-11.6-10.4-3.2-2.9-7.2-6.5-20-18-5.2-4.7-10-9-10.6-9.5-.6-.6-4.9-4.4-9.5-8.5-13.8-12.3-18.4-16.5-18.9-17-.3-.3-6.8-6.2-14.5-13-7.7-6.9-16-14.3-18.5-16.6-2.5-2.3-9.7-8.7-16-14.4-6.3-5.7-15.3-13.7-19.9-17.9-11.2-10.1-11.9-10.7-20.8-18.7-7.4-6.6-18.2-16.3-19.3-17.4-.3-.3-6.8-6.1-14.5-13s-14.5-12.9-15.1-13.5c-.6-.5-4.9-4.4-9.5-8.5-19.7-17.5-26.4-26.2-27.6-35.7-.7-6.1.9-11.9 5-18l3.2-4.8 128.8-.1c98.4 0 128.4.3 127.5 1.2-.7.6-7.6 5.4-15.3 10.6-7.7 5.2-18.5 12.6-24 16.3-5.5 3.8-13.3 9.1-17.2 11.8-4 2.7-7.3 5.2-7.3 5.6 0 .3 14.7.6 32.8.6h32.7l.1 11.5c.1 13.4-.6 17.3-4.6 25.8-4.9 10.2-10 14.7-37.9 32.9-14.1 9.1-30 19.5-35.3 23-5.3 3.5-9.9 6.6-10.1 7.1-.3.4 10.4.7 23.6.8 28 0 32 .5 40.2 4.4 7.5 3.7 12.3 8 16.8 15 5.9 9.4 6.9 14.2 7.3 35.5l.4 19 17.8 17.8 17.9 17.9-.2-41.9c-.2-47.1-.8-52-7.2-65.2-3.4-6.9-8.7-12.9-17.7-20.4l-3-2.4 3-3c11.3-11.4 18.4-23.8 22.4-39.3.7-2.5 1.4-5.4 1.7-6.5.6-2.4 1.3-111.3.7-113.5-.4-1.4-24.6-1.6-234.4-1.6-128.8 0-234.2.1-234.3.2zm39.8 38.8c-.3 1.1-.8 3.2-1.1 4.5-.3 1.4-.7 2.8-1 3.3-.3.4-1.1 4.3-1.8 8.6-3.6 22.9 2.6 45.2 17.9 64.2 7.2 8.8 13.2 14.9 28 28.5 6.1 5.5 14.1 12.9 18 16.5 3.8 3.6 12.4 11.5 19 17.5s12.7 11.6 13.6 12.5c.9.8 6.2 5.8 11.9 11s13.1 12 16.4 15.1c3.4 3.1 7.3 6.7 8.7 8 2.8 2.5 20.3 18.6 24.9 22.9 1.5 1.4 7.1 6.5 12.5 11.5 5.4 4.9 11 10.1 12.5 11.5 1.5 1.4 6.9 6.3 12 11s10.7 9.8 12.5 11.5c1.7 1.6 7.8 7.3 13.6 12.5 5.7 5.2 11.3 10.4 12.5 11.5 1.1 1.1 6.3 5.8 11.4 10.5 5.1 4.7 10.5 9.6 11.9 11 1.4 1.4 7.5 7 13.6 12.5 19.2 17.5 26.6 24.9 30.9 30.5 9.9 12.9 12.6 25.2 8.8 40-1.3 5.1-5.8 16.9-6.9 18-.2.3-13.6.5-29.7.5h-29.3l1.9-5.5c1.1-3 2.2-9.2 2.5-13.7 1.1-15.4-2.9-26.9-14-40.8-7.1-8.8-12.4-14-46.1-44.5-2.7-2.5-5.7-5.2-6.6-6-1.4-1.4-14.8-13.6-22.5-20.5-1.6-1.5-5-4.6-7.5-6.9-2.5-2.2-9.2-8.4-15-13.6l-12.6-11.5c-2.1-2-15.9-14.7-26.3-24a513 513 0 0 0-7.1-6.5c-1.3-1.3-20.1-18.3-23.6-21.5-.6-.6-5.5-5.1-10.9-10-5.4-5-10.9-9.9-12.1-11-1.2-1.1-6.1-5.6-11-10-4.8-4.4-9.5-8.7-10.4-9.5-.9-.8-6.3-5.8-12-11-5.8-5.2-11-10-11.6-10.5-.6-.6-5.5-5.1-11-10-17.3-15.7-33.4-33.1-33.4-36.1 0-.3-.8-1.8-1.9-3.2-2.5-3.6-6.8-16.3-8-23.7-1.2-7.7-.6-23.1 1.3-31.8.8-3.7 3.2-10.7 5.3-15.5l3.9-8.7 4.4-.5c2.5-.3 13.4-.6 24.3-.6 19.9-.2 19.9-.2 19.2 2zm92.9-1.3c.3.3-.2 3-1.1 6-1.1 3.6-1.6 9-1.6 16.4-.1 12.7 2 20.1 8.1 29.4 3.3 5.1 24 26.6 33.7 35.1 3.8 3.3 16.8 15 35.9 32.4 4.9 4.5 9.7 8.8 10.6 9.6 1 .8 5.7 5.2 10.6 9.6 4.9 4.4 11.6 10.5 14.9 13.4 3.3 3 6.2 5.6 6.5 5.9.3.3 4.8 4.4 10 9.1 5.2 4.7 10 9 10.5 9.6.6.6 10.2 9.3 21.5 19.5 11.3 10.1 20.7 18.6 21 18.9.3.3 5 4.5 10.5 9.5 11.9 10.7 10.1 9.1 21.3 19.3 5 4.6 9.9 9.1 11 10 2.6 2.3 18.9 17.1 22.3 20.2 1.5 1.4 6.2 5.6 10.5 9.5 13.3 11.8 31.8 30.6 37.2 37.8 5.7 7.4 11.2 18.6 13.2 26.2 3.1 12.2 1.6 33-3.8 52.5l-1.7 6.5h-26.9c-14.7 0-27-.3-27.2-.6-.2-.4.3-2.6 1.2-5 6.4-18.1 6.7-36.8.7-51.8-5.7-14.6-16.7-27.8-43.2-52.1-5.8-5.2-11.9-10.9-13.7-12.5-1.7-1.7-7.6-7-13-12a917.4 917.4 0 0 1-16.3-15c-11.2-10.4-11-10.2-32.1-29.5l-13.6-12.5c-2.1-2-19-17.6-24.9-22.9-1.6-1.5-5-4.7-7.5-7s-9.9-9.1-16.5-15.1c-6.6-6.1-12.5-11.5-13.1-12-5-4.6-31-28.6-39.6-36.6-1.6-1.5-6.5-6-10.9-10-4.5-4.1-9.6-8.8-11.4-10.4-1.7-1.7-8.1-7.5-14.1-12.9-18.1-16.6-28.9-27.8-32.1-33.6-9.1-16.1-10-34.4-2.4-51.5l1.8-4.1h26.6c14.6.1 26.8.4 27.1.7zM172 157.4c0 .2-.7 3.1-1.5 6.3-.8 3.2-2.1 10.1-2.8 15.3-3.7 27.1 1.5 53 14.9 73.2 4.9 7.4 23.7 26.9 39.8 41.3 4.9 4.4 10.1 9.1 11.6 10.5 1.5 1.4 6.4 5.9 11 10s8.8 8 9.4 8.5c.6.6 4 3.7 7.6 7 3.6 3.2 10.7 9.7 15.9 14.4 5.2 4.7 10.2 9.3 11.1 10.1a6815 6815 0 0 1 34.6 31.5c.6.5 5.1 4.6 10 9 4.8 4.4 10.1 9.2 11.7 10.7 1.6 1.5 6.3 5.8 10.5 9.5 4.1 3.7 8 7.3 8.6 7.8.6.6 6.1 5.6 12.1 11 6.1 5.5 13.5 12.3 16.5 15.2 3 2.8 6.4 6 7.6 7 1.2 1 6.3 5.6 11.4 10.3 5.1 4.7 10.1 9.2 11 10 1.6 1.4 12.8 11.6 26.4 24 17.1 15.6 20 20.3 20 32.5.1 7.1-.3 8.9-3.1 14.6l-3.2 6.5-124.3-.1c-68.4-.1-125.2-.5-126.3-.8-1.1-.2-4.2-.8-6.8-1.1-14.1-1.9-33.3-7.1-43.2-11.6-1.1-.5-4.9-2.1-8.6-3.7-31.5-13.5-63.4-41-84-72.3-11.4-17.3-23.2-43.4-26.5-58.5-.1-.6-.7-3-1.4-5.5-1.3-4.9-1.8-7-2.5-11.5-.3-1.7-1-5.9-1.7-9.5-2-10.7-1.5-55.8.7-62.2.2-.7.7-3.1 1-5.3.3-2.2 1-5.8 1.6-8 .6-2.2 1.2-4.7 1.4-5.5.2-.9 1.5-5.5 3-10.3 7.8-25.8 22.4-52.1 39.9-72.2 21.6-24.9 46.6-42.9 76.1-55.1 7.5-3.1 10.5-4 10.5-3z"/><path d="M439 175.6c0 .7 1 1.7 13 11.9 5.8 5 10.7 9.2 11 9.5 4.8 4.8 14.3 12 15.9 12 3.8 0 11.5-4.3 16.4-9.2 5.4-5.4 9.4-13.1 10.3-20.1l.7-4.7h-33.7c-18.5 0-33.6.3-33.6.6z"/></svg>