<svg width="121" height="121" fill="none" xmlns="http://www.w3.org/2000/svg"><path d="M44.09 74.234l8.9-14.83 27.145-1.274 28.031 37.227c5.193 6.897.272 16.76-8.36 16.76h-58.69l2.974-37.883z" fill="#fff" stroke="#172E2B" stroke-miterlimit="10"/><path d="M50.576 63.427s5.987 6.713 15.642 6.095c9.655-.618 15.758-5.447 16.839-7.512l16.958 22.521-28.081 23.343H48.222l-4.132-33.64 6.486-10.807z" fill="#FA555B"/><path d="M105.533 97.25s-2.858-3.243-11.354-5.56c-8.496-2.317-16.84-2.858-21.706-2.472-4.864.386-11.198 3.862-12.434 10.582-1.235 6.719 2.55 7.377 6.025 7.377h13.208s3.784-.426 4.248-4.751" fill="#fff"/><path d="M105.533 97.25s-2.858-3.243-11.354-5.56c-8.496-2.317-16.84-2.858-21.706-2.472-4.864.386-11.198 3.862-12.434 10.582-1.235 6.719 2.55 7.377 6.025 7.377h13.208s3.784-.426 4.248-4.751" stroke="#172E2B" stroke-miterlimit="10"/><path d="M75.255 97.096s-3.203 1.045-3.63 5.216c-.276 2.702-.54 4.865-.54 4.865M69.032 96.516s-3.203 1.624-3.63 5.795c-.276 2.702-.54 4.865-.54 4.865M80.135 58.13l28.031 37.227M44.09 74.234l8.9-14.83" stroke="#172E2B" stroke-miterlimit="10"/><path d="M44.176 30.267l-2.343-13.19 12.181 3.004" fill="#fff"/><path d="M44.176 30.267l-2.343-13.19 12.181 3.004" stroke="#172E2B" stroke-miterlimit="10"/><path d="M74.047 19.277l12.176-6.447-.482 17.846" fill="#fff"/><path d="M74.047 19.277l12.176-6.447-.482 17.846" stroke="#172E2B" stroke-miterlimit="10"/><path d="M64.861 63.427c12.718 0 23.029-10.31 23.029-23.028 0-12.719-10.31-23.029-23.029-23.029-12.718 0-23.028 10.31-23.028 23.029 0 12.718 10.31 23.028 23.028 23.028z" fill="#fff" stroke="#172E2B" stroke-miterlimit="10"/><path d="M41.116 34.688h17.417s-.193 11.045-8.69 11.045c-8.341 0-8.727-11.045-8.727-11.045zM64.861 34.688h17.417s-.193 11.045-8.689 11.045c-8.341 0-8.728-11.045-8.728-11.045z" stroke="#172E2B" stroke-miterlimit="10"/><path d="M72.473 41.986a2.047 2.047 0 100-4.094 2.047 2.047 0 000 4.094zM50.944 41.986a2.047 2.047 0 100-4.094 2.047 2.047 0 000 4.094z" fill="#172E2B"/><path d="M47.12 37.052s3.012 2.394 7.647 1.468l-7.647-1.468z" fill="#fff"/><path d="M47.12 37.052s3.012 2.394 7.647 1.468" stroke="#172E2B" stroke-miterlimit="10"/><path d="M58.41 38.484h6.451l-3.458 5.936-2.993-5.936z" fill="#172E2B" stroke="#172E2B" stroke-miterlimit="10"/><path d="M81.962 37.314h5.722M66.064 30.675s.882 1.79 2.626 1.541c2.433-.347 5.356-5.792 9.114-3.553" stroke="#172E2B" stroke-miterlimit="10"/><path d="M86.512 48.263l-3.688 14.732a10.254 10.254 0 01-9.947 7.763H55.376c-6.733 0-11.64-6.379-9.91-12.886l1.131-4.261" fill="#fff"/><path d="M86.512 48.263l-3.688 14.732a10.254 10.254 0 01-9.947 7.763H55.376c-6.733 0-11.64-6.379-9.91-12.886l1.131-4.261" stroke="#172E2B" stroke-miterlimit="10"/><path d="M52.54 70.328a6.62 6.62 0 004.364-.611c1.327-.694 2.403-2.09 2.992-3.467M58.083 70.758c3.235 0 5.958-1.864 6.47-4.873M63.412 70.758c1.648.055 2.575-.67 3.373-1.498.797-.829 1.31-1.898 1.62-3.006M68.046 70.758c1.796.003 2.897-1.114 3.541-2.222.45-.774.725-1.637.938-2.506M61.445 43.725c.539 2.472-.131 5.41-1.55 6.41-.97.686-1.704 1.026-2.888 1.124M58.193 48.427c-.309 2.294-1.937 4.363-4.094 5.203" stroke="#172E2B" stroke-miterlimit="10"/><path d="M54.928 50.136c-.012 1.645-.664 3.886-1.873 5.059-.681.66-1.572 1.052-2.443 1.43M68.25 51.768c.261-.584.36-1.24.28-1.875-.032-.26-.096-.522-.236-.743-.242-.379-.68-.592-1.12-.683-.44-.091-.895-.08-1.343-.113-2.75-.206-4.013-2.422-3.83-5.019M70.535 49.134c.461 1.4.42 2.816-.694 3.852M72.647 50.748c.466 1.43-.14 3.137-1.403 3.953M78.526 52.941c.571-.634.891-1.488.879-2.342M80.53 52.315a5.702 5.702 0 001.02-2.647M82.428 51.286a4.952 4.952 0 00.978-2.544M84.238 50.54a5.774 5.774 0 001.19-3.186M59.319 50.54s4.279 1.67 8.558-1.798" stroke="#172E2B" stroke-miterlimit="10"/><path d="M58.067 83.134l-2.94-1.253v-.775l2.94-1.25v.928l-1.782.663-.185.044v.02l.185.045 1.782.65v.928zM58.306 83.796l2.053-5.399h.918l-2.052 5.4h-.919z" fill="#fff"/><path d="M63.48 83.441c-.228 0-.423-.044-.584-.133a1.154 1.154 0 01-.407-.393l-.071.455h-.86v-4.624l-.53-.103v-.6h1.523v2.024c.107-.148.238-.261.393-.341.157-.08.339-.12.546-.12.298 0 .55.081.758.243.21.16.369.385.478.676.11.291.164.634.164 1.028v.072c0 .366-.055.686-.164.96-.11.27-.269.48-.478.631-.21.15-.466.225-.768.225zm-.3-.775c.254 0 .438-.09.549-.27.112-.182.167-.439.167-.771v-.072c0-.241-.025-.449-.075-.622a.83.83 0 00-.229-.406.567.567 0 00-.402-.143.686.686 0 00-.386.105.737.737 0 00-.253.287v1.544c.068.114.155.2.26.26a.75.75 0 00.368.088zM67.164 83.441c-.364 0-.677-.08-.939-.239a1.569 1.569 0 01-.6-.662 2.207 2.207 0 01-.209-.98v-.072c0-.367.07-.69.208-.973a1.57 1.57 0 01.598-.666c.262-.162.574-.243.936-.243.366 0 .68.081.939.243.26.16.458.38.597.662.14.283.209.608.209.977v.072c0 .368-.07.695-.209.98a1.576 1.576 0 01-.597.662c-.26.16-.57.24-.933.24zm0-.765a.63.63 0 00.424-.14.822.822 0 00.242-.389c.053-.168.079-.364.079-.587v-.072c0-.219-.026-.41-.079-.577a.81.81 0 00-.246-.393.624.624 0 00-.426-.143.628.628 0 00-.424.143.809.809 0 00-.246.393c-.05.166-.075.358-.075.577v.072c0 .223.025.419.075.587.053.169.135.3.246.393a.658.658 0 00.43.136zM70.805 83.441c-.294 0-.547-.075-.758-.225a1.443 1.443 0 01-.482-.635 2.516 2.516 0 01-.167-.956v-.072c0-.39.056-.73.167-1.021.114-.292.276-.518.485-.68.21-.164.46-.246.751-.246a1.11 1.11 0 01.93.465v-1.325l-.534-.103v-.6h1.53v4.627l.478.102v.598h-1.342l-.075-.451c-.116.17-.255.3-.416.39-.16.088-.349.132-.567.132zm.297-.775a.73.73 0 00.365-.089.743.743 0 00.263-.256v-1.567a.75.75 0 00-.26-.273.665.665 0 00-.361-.1.576.576 0 00-.41.15.876.876 0 00-.232.41c-.048.176-.072.38-.072.612v.072c0 .323.055.578.164.765.11.184.29.276.543.276zM74.547 84.862a1.73 1.73 0 01-.276-.024 2.007 2.007 0 01-.273-.058l.112-.73a1.583 1.583 0 00.28.027.621.621 0 00.373-.113.636.636 0 00.228-.325l.082-.228-1.236-3.07-.454-.065v-.601h1.96v.6l-.45.069.58 1.629.072.201h.02l.686-1.837-.44-.061v-.601h1.827v.6l-.417.059-1.41 3.585a2 2 0 01-.263.468 1.162 1.162 0 01-.403.345c-.162.087-.36.13-.598.13zM78.054 83.165v-.922l1.79-.67.208-.044v-.02l-.208-.058-1.79-.646v-.919l2.975 1.25v.776l-2.975 1.253z" fill="#fff"/><path d="M39.88 79.635l9.327-9.996a9.844 9.844 0 001.197-11.855l-2.085-3.407 1.19-.608a3.573 3.573 0 00-3.133-6.42L43.4 48.735s-.947-2.078-1.355-5.4h-2.75a4.053 4.053 0 00-3.97 3.234l-1.594 7.718c-.441 2.136-.336 4.356.36 6.422.374 1.106.941 2.292 1.797 3.433 0 0-16.624 15.244-16.4 15.457.32.304 22.978.003 20.39.036z" fill="#fff" stroke="#172E2B" stroke-miterlimit="10"/><path d="M43.401 48.735l-1.78.92a3.902 3.902 0 00-1.828 4.926l.679 1.682" stroke="#172E2B" stroke-miterlimit="10"/><path d="M14.392 112.737L7.209 72.651H52.16l6.372 34.989h30.471c0 2.542-2.052 5.072-4.593 5.089l-70.02.008z" fill="#87DBB7"/><path d="M44.35 104.993a4.238 4.238 0 10.002-8.476 4.238 4.238 0 00-.002 8.476z" fill="#FFD576" stroke="#fff" stroke-miterlimit="10"/><path d="M15.38 85.915l5.885-7.356 2.935 8.342-8.82-.986zM118.552 112.582H2.418v8.069h116.134v-8.069z" fill="#1C51DB"/></svg>