<svg width="121" height="121" fill="none" xmlns="http://www.w3.org/2000/svg"><path d="M49.24 31.052l-10.641-10.3L66.988 3.207l20.128 18.134-13.568 6.995-24.308 2.715z" fill="#172E2B" stroke="#172E2B" stroke-miterlimit="10"/><path d="M49.644 30.51l4.746-16.465h19.158l1.196 11.75" stroke="#fff" stroke-miterlimit="10"/><path d="M87.116 22.951v8.101M87.116 22.951l2.2 7.19M87.116 22.951l3.756 5.794M87.116 22.951l5.955 4.05" stroke="#FFD576" stroke-miterlimit="10"/><path d="M87.25 24.574a1.006 1.006 0 100-2.012 1.006 1.006 0 000 2.012z" fill="#FFD576" stroke="#FFD576" stroke-miterlimit="10"/><path d="M67.641 46.772h-9.174v3.38h9.174v-3.38z" fill="#172E2B" stroke="#172E2B" stroke-miterlimit="10"/><path d="M63.269 47.897c7.748 0 14.03-6.281 14.03-14.03 0-7.748-6.282-14.029-14.03-14.029-7.748 0-14.03 6.281-14.03 14.03 0 7.748 6.282 14.03 14.03 14.03zM57.77 49.4H68.24c1.134 0 2.035.951 1.976 2.083l-.133 2.531H55.651l.143-2.738A1.978 1.978 0 0157.77 49.4zM37.007 81.83l1.772-16.406a12.783 12.783 0 0112.709-11.41H70.04c7.06 0 12.783 5.723 12.783 12.783V81.83H37.007z" fill="#fff" stroke="#172E2B" stroke-miterlimit="10"/><path d="M49.24 81.83c2.253-21.166-4.809-25.692-4.809-25.692l-2.727 2.433s-2.54 3.296-2.925 6.853L37.007 81.83H49.24zM70.678 81.83c0-19.178 8.098-24.366 8.098-24.366s2.757 2.479 3.363 5.194c.607 2.716.685 19.172.685 19.172H70.678z" fill="#172E2B"/><path d="M17.795 57.82c.246 1.065 1.133 1.91 2.157 2.291 1.024.382 2.165.35 3.232.113 3.868-.86 6.892-4.605 6.919-8.568.005-.71-.085-1.445-.447-2.055-1.586-2.67-4.419.615-2.398 2.877 1.381 1.546 3.71 1.942 5.74 1.517 2.03-.424 3.839-1.536 5.6-2.629" stroke="#FA555B" stroke-miterlimit="10"/><path d="M73.516 25.794a3.702 3.702 0 000 7.404h3.767a13.953 13.953 0 00-2.539-7.404h-1.228z" fill="#FFD576" stroke="#172E2B" stroke-miterlimit="10"/><path d="M76.91 37.161c-8.732.866-10.156-3.963-10.156-3.963h-7.286s-2.368 4.775-9.961 3.407" stroke="#172E2B" stroke-miterlimit="10"/><path d="M59.297 40.977h7.3c.377 0 .534-.48.232-.705-.69-.516-1.902-1.13-3.774-1.145-1.934-.017-3.238.643-3.978 1.18-.29.21-.14.67.22.67z" fill="#172E2B" stroke="#172E2B" stroke-miterlimit="10"/><path d="M56.294 29.497a3.702 3.702 0 00-3.701-3.702h-.799a13.952 13.952 0 00-2.539 7.403h3.338a3.702 3.702 0 003.701-3.701z" fill="#FFD576" stroke="#172E2B" stroke-miterlimit="10"/><path d="M49.24 33.867c0-7.747 6.28-14.029 14.03-14.029 7.748 0 14.029 6.281 14.029 14.03" stroke="#172E2B" stroke-miterlimit="10"/><path d="M27.672 81.185h65.239l15.91 29.643H8.788l18.884-29.643z" fill="#FA555B"/><path d="M8.788 113.243H108.82" stroke="#87DBB7" stroke-miterlimit="10"/><path d="M32.715 101.065l6.867-15.911 6.303-1.742a16.792 16.792 0 0113.039 1.742l.114-.07a16.793 16.793 0 0112.727-1.877l7.733 1.947 6.009 15.911H32.715z" fill="#fff"/><path d="M32.715 104.043l24.572-1.395-.993 2.254h6.234l-1.486-2.254 24.465 1.717" stroke="#1C51DB" stroke-miterlimit="10"/><path d="M58.924 87.222l-.457 11.422" stroke="#87DBB7" stroke-miterlimit="10"/><path d="M93.742 73.007a2.011 2.011 0 100-4.023 2.011 2.011 0 000 4.023z" stroke="#FFD576" stroke-miterlimit="10"/><path d="M83.31 52.36l.7-1.589c.919-2.09 3-2.476 4.633-.86l.399.395c1.598 1.582 3.635 1.248 4.583-.75l.13-.277c.94-1.98 2.95-2.328 4.545-.786 1.615 1.56 3.651 1.182 4.575-.85l.066-.145c.889-1.958 2.821-2.392 4.419-.992l.65.569c1.531 1.34 3.381 1.004 4.317-.784l.904-1.728" stroke="#87DBB7" stroke-miterlimit="10"/><path d="M18.361 22.495c-.61-1.322.182-3.095 1.574-3.525 1.391-.43 3.044.588 3.287 2.024.181 1.07-.32 2.12-.672 3.147-.352 1.027-.522 2.28.19 3.1M23.343 28.035l.63.815" stroke="#fff" stroke-miterlimit="10"/></svg>