<svg width="162" height="121" fill="none" xmlns="http://www.w3.org/2000/svg"><path d="M59.931 45.123c-1.756 6.524-12.94 7.74-17.622 4.264-6.702-4.976-10.029-11.736-7.703-19.14 3.733-11.883 11.409-9.568 12.535-17.81 1.003-7.344-11.37-6.538-6.537 3.41 3.514 7.236 8.242 7.675 13.927 6.254 7.501-1.875 12.265-14.217 7.674-13.644-4.547.569.853 8.812 6.538 12.791 4.393 3.075 8.81 1.705 10.8 1.705" stroke="#D6575F" stroke-miterlimit="10"/><path d="M115.022 37.076a2.782 2.782 0 01-3.144-2.365l-2.088-14.754a2.781 2.781 0 115.509-.78l2.088 14.754a2.783 2.783 0 01-2.365 3.145zM67.037 64.166c-9.38 0-12.222-11.653-9.38-21.032 2.843-9.38 9.096-12.506 12.791-12.506h13.359c3.695 0 4.832-.569 4.832-2.558 2.842 0 3.98-7.39-1.137-11.37-5.042-3.921-11.938-1.99-14.496 1.99-2.842.284-20.464 3.411-24.444 18.76-3.979 15.348 4.548 29.275 17.054 29.275l1.421-2.558z" fill="#212B2C" stroke="#212B2C" stroke-miterlimit="10"/><path d="M82.67 22.953h69.388v59.47" stroke="#D6575F" stroke-miterlimit="10"/><path d="M152.058 88.043l-3.235-7.918 3.235 1.88 3.234-1.88-3.234 7.918z" fill="#D6575F"/><path d="M152.058 54.503h-30.421v38.484" stroke="#D6575F" stroke-miterlimit="10"/><path d="M121.637 98.605l-3.235-7.917 3.235 1.879 3.234-1.88-3.234 7.918z" fill="#D6575F"/><path d="M152.058 73.83h-18.034v27.849" stroke="#D6575F" stroke-miterlimit="10"/><path d="M134.024 107.297l-3.235-7.917 3.235 1.879 3.234-1.879-3.234 7.917z" fill="#D6575F"/><path d="M121.622 73.83h-19.379" stroke="#D6575F" stroke-miterlimit="10"/><path d="M96.624 73.83l7.917-3.234-1.878 3.234 1.878 3.235-7.917-3.234z" fill="#D6575F"/><path d="M59.931 45.123c1.99-7.39-10.232-12.79-16.2-9.663-3.778 1.978-5.117 5.684-1.422 13.927 3.695 8.243 8.811 17.054 1.99 19.044-5.178 1.51-9.092-6.486-2.558-8.527 6.313-1.972 11.938 6.253 11.938 12.79 0 6.538-4.005 10.99-11.654 13.075-9.38 2.558-9.664-7.958-1.99-9.38 3.294-.61 6.888.858 8.98 3.435 1.958 2.413 1.764 5.304 1.48 8.21-.285 2.909.058 5.769 2.112 8.074 3.143 3.526 11.321 4.173 15.198 1.652 3.958-2.574 1.899-8.338-2.806-7.514-3.897.683-6.481 5.409-6.71 9.054-.248 3.969 1.681 7.917 4.698 10.508 1.752 1.504 3.912 2.609 6.213 2.791 2.302.183 4.737-.649 6.201-2.433 1.465-1.785 1.758-4.543.438-6.437-1.016-1.459-2.796-2.239-4.562-2.444-3.994-.462-7.395.968-10.92 2.535-3.827 1.702-7.61 3.505-11.39 5.311-3.363 1.607-7.185 3.137-10.883 3.686-2.591.385-5.33.194-7.677-.973-2.345-1.167-4.234-3.408-4.573-6.006-.232-1.778.333-3.641 1.597-4.928 1.2-1.222 3.554-2.37 5.084-1.087 2.16 1.811.188 5.376-1.136 7.035-1.67 2.091-3.979 3.655-6.486 4.564-5.331 1.933-13.843 3.051-18.089-1.466-2.878-3.062-3.882-7.502-2.567-11.497 1.972-5.994 10.22-12.2 16.667-9.484 3.507 1.478 5.024 5.745 3.613 9.22-1.08 2.661-4.02 4.852-6.936 4.818-2.877-.033-5.802-1.496-7.62-3.682-1.962-2.36-3.019-5.344-3.383-8.365-.784-6.517 2.873-13.007 1.118-19.456-.862-3.165-3.11-6.072-6.221-7.109" stroke="#D6575F" stroke-miterlimit="10"/><path d="M61.637 64.167l-12.222 42.35s-9.096 1.422-9.096 7.959h23.592l5.404-30.015 21.175 30.015h33.394c-.89-8.528-9.38-10.801-17.338-10.801-2.843-2.558-35.53-39.508-35.53-39.508h-9.38zM67.037 64.167a7.39 7.39 0 100-14.78 7.39 7.39 0 000 14.78z" fill="#fff" stroke="#212B2C" stroke-miterlimit="10"/><path d="M71.585 50.808l2.842-2.842-1.184 4.8-1.658-1.958z" fill="#fff" stroke="#212B2C" stroke-miterlimit="10"/><path d="M71.016 54.503a.568.568 0 100-1.137.568.568 0 000 1.137z" fill="#212B2C"/><path d="M113.651 27.785l4.022-13.192a2.782 2.782 0 015.321-.048" fill="#fff"/><path d="M113.651 27.785l4.022-13.192a2.782 2.782 0 015.321-.048" stroke="#212B2C" stroke-miterlimit="10"/><path d="M132.04 19.943a2.782 2.782 0 00-3.775-3.34 2.78 2.78 0 00-5.191-1.708c-.009-.052-.015-.106-.027-.158a2.782 2.782 0 00-5.375-.145l-3.247 10.976h-.001l-.041.144-.007.023c-.308 1.029-2.195 6.626-7.888 10.803-11.281 8.276-32.184 22.918-34.784 24.825-3.557 2.609-2.596 4.561-2.596 4.561l1.055 3.643s45.46-22.529 51.19-26.732c3.14-2.304 5.031-5.389 6.139-7.902a2.75 2.75 0 00.321-.701l.075-.254c.759-1.95 1.014-3.377 1.036-3.502l3.116-10.533z" fill="#212B2C" stroke="#212B2C" stroke-miterlimit="10"/><path d="M123.331 29.812l3.374-11.447c.59-1.665 2.011-2.518 2.863-2.518M119.051 28.354l3.792-12.908c.472-1.588 1.609-2.441 2.746-2.441" stroke="#fff" stroke-miterlimit="10"/><path d="M68.167 62.224a1.99 1.99 0 01-1.379-3.726l.497-.216 2.026-8.611s-7.39-2.274-9.38 5.116c-1.523 5.658-4.263 17.054-4.263 17.054l16.485.569-3.986-10.186z" fill="#fff" stroke="#212B2C" stroke-miterlimit="10"/><path d="M112.952 29.07s.583-1.221 1.267-3.275c.853-2.558 2.274-9.38 2.274-9.38M82.67 23.522s4.264 3.41 5.4 4.263c1.137.853.853 1.706.853 1.706M81.533 24.09l2.842-2.842" stroke="#fff" stroke-miterlimit="10"/><path d="M121.637 57.06a2.558 2.558 0 100-5.115 2.558 2.558 0 000 5.116z" fill="#F1CE7A" stroke="#F1CE7A" stroke-miterlimit="10"/><path d="M121.637 76.388a2.558 2.558 0 100-5.115 2.558 2.558 0 000 5.115z" fill="#3356C9" stroke="#3356C9" stroke-miterlimit="10"/><path d="M152.058 76.388a2.558 2.558 0 100-5.115 2.558 2.558 0 000 5.115z" fill="#F1CE7A" stroke="#F1CE7A" stroke-miterlimit="10"/><path d="M152.058 57.06a2.558 2.558 0 100-5.115 2.558 2.558 0 000 5.116z" fill="#A5D8B9" stroke="#A5D8B9" stroke-miterlimit="10"/><path d="M152.058 25.795a2.558 2.558 0 100-5.116 2.558 2.558 0 000 5.116z" fill="#3356C9" stroke="#3356C9" stroke-miterlimit="10"/><path d="M134.024 92.943h12.79v14.705" stroke="#D6575F" stroke-miterlimit="10"/><path d="M146.814 113.266l-3.235-7.917 3.235 1.879 3.234-1.879-3.234 7.917z" fill="#D6575F"/><path d="M134.024 95.644a2.558 2.558 0 100-5.116 2.558 2.558 0 000 5.116z" fill="#A5D8B9" stroke="#A5D8B9" stroke-miterlimit="10"/><path d="M70.609 86.274l-3.885-5.488" stroke="#212B2C" stroke-miterlimit="10"/></svg>