<svg width="162" height="121" fill="none" xmlns="http://www.w3.org/2000/svg"><path d="M59.93 45.12C58.17 51.65 47 52.86 42.31 49.4c-6.7-4.98-10.03-11.74-7.7-19.14 3.73-11.89 11.4-9.57 12.53-17.81 1-7.35-11.37-6.54-6.54 3.4 3.52 7.24 8.25 7.68 13.93 6.26 7.5-1.87 12.27-14.22 7.67-13.64-4.54.57.86 8.8 6.54 12.79 4.4 3.07 8.81 1.7 10.8 1.7" stroke="#D6575F" stroke-miterlimit="10"/><path d="M115.02 37.08a2.78 2.78 0 0 1-3.14-2.37l-2.09-14.75a2.78 2.78 0 1 1 5.5-.78l2.1 14.75a2.78 2.78 0 0 1-2.37 3.15zM67.04 64.17c-9.38 0-12.22-11.66-9.38-21.04 2.84-9.38 9.1-12.5 12.79-12.5H83.8c3.7 0 4.83-.57 4.83-2.56 2.84 0 3.98-7.39-1.14-11.37-5.04-3.92-11.94-1.99-14.5 1.99-2.84.28-20.46 3.41-24.44 18.76-3.98 15.35 4.55 29.27 17.06 29.27l1.42-2.55z" fill="#212B2C" stroke="#212B2C" stroke-miterlimit="10"/><path d="M82.67 22.95h69.39v59.47" stroke="#D6575F" stroke-miterlimit="10"/><path d="m152.06 88.04-3.24-7.92 3.24 1.88 3.23-1.88-3.23 7.92z" fill="#D6575F"/><path d="M152.06 54.5h-30.42V93" stroke="#D6575F" stroke-miterlimit="10"/><path d="m121.64 98.6-3.24-7.91 3.24 1.88 3.23-1.88-3.23 7.92z" fill="#D6575F"/><path d="M152.06 73.83h-18.04v27.85" stroke="#D6575F" stroke-miterlimit="10"/><path d="m134.02 107.3-3.23-7.92 3.23 1.88 3.24-1.88-3.24 7.92z" fill="#D6575F"/><path d="M121.62 73.83h-19.38" stroke="#D6575F" stroke-miterlimit="10"/><path d="m96.62 73.83 7.92-3.23-1.88 3.23 1.88 3.23-7.92-3.23z" fill="#D6575F"/><path d="M59.93 45.12c2-7.39-10.23-12.79-16.2-9.66-3.78 1.98-5.12 5.68-1.42 13.93 3.7 8.24 8.81 17.05 1.99 19.04-5.18 1.51-9.1-6.49-2.56-8.53 6.31-1.97 11.94 6.26 11.94 12.8 0 6.53-4 10.98-11.65 13.07-9.38 2.56-9.67-7.96-2-9.38a9.7 9.7 0 0 1 8.99 3.43c1.95 2.42 1.76 5.3 1.47 8.21-.28 2.91.06 5.77 2.12 8.08 3.14 3.52 11.32 4.17 15.2 1.65 3.95-2.57 1.9-8.34-2.81-7.51-3.9.68-6.48 5.4-6.71 9.05-.25 3.97 1.68 7.92 4.7 10.5a11 11 0 0 0 6.21 2.8c2.3.18 4.74-.65 6.2-2.43 1.47-1.79 1.76-4.55.44-6.44-1.02-1.46-2.8-2.24-4.56-2.45-4-.46-7.4.97-10.92 2.54-3.83 1.7-7.61 3.5-11.4 5.31-3.36 1.6-7.18 3.14-10.88 3.69a13 13 0 0 1-7.67-.98c-2.35-1.16-4.24-3.4-4.58-6a5.98 5.98 0 0 1 1.6-4.93c1.2-1.22 3.56-2.37 5.09-1.09 2.15 1.81.18 5.38-1.14 7.04a14.75 14.75 0 0 1-6.49 4.56c-5.33 1.93-13.84 3.05-18.09-1.46a11.57 11.57 0 0 1-2.56-11.5c1.97-6 10.22-12.2 16.66-9.48 3.51 1.47 5.03 5.74 3.62 9.22-1.08 2.66-4.02 4.85-6.94 4.81a10.4 10.4 0 0 1-7.62-3.68 16.02 16.02 0 0 1-3.38-8.36C5.79 84.45 9.45 77.96 7.7 71.5c-.87-3.17-3.11-6.07-6.22-7.1" stroke="#D6575F" stroke-miterlimit="10"/><path d="m61.64 64.17-12.22 42.35s-9.1 1.42-9.1 7.96h23.6l5.4-30.02 21.17 30.02h33.4c-.9-8.53-9.39-10.8-17.34-10.8-2.85-2.56-35.53-39.51-35.53-39.51h-9.38zm5.4 0a7.39 7.39 0 1 0 0-14.78 7.39 7.39 0 0 0 0 14.78z" fill="#fff" stroke="#212B2C" stroke-miterlimit="10"/><path d="m71.58 50.8 2.85-2.83-1.19 4.8-1.65-1.96z" fill="#fff" stroke="#212B2C" stroke-miterlimit="10"/><path d="M71.02 54.5a.57.57 0 1 0 0-1.13.57.57 0 0 0 0 1.13z" fill="#212B2C"/><path d="m113.65 27.79 4.02-13.2a2.78 2.78 0 0 1 5.32-.04" fill="#fff"/><path d="m113.65 27.79 4.02-13.2a2.78 2.78 0 0 1 5.32-.04" stroke="#212B2C" stroke-miterlimit="10"/><path d="M132.04 19.94a2.78 2.78 0 0 0-3.77-3.34 2.78 2.78 0 0 0-5.2-1.7l-.02-.16a2.78 2.78 0 0 0-5.38-.15l-3.25 10.98-.04.14v.03a22.11 22.11 0 0 1-7.9 10.8C95.22 44.8 74.3 59.46 71.7 61.36c-3.55 2.61-2.6 4.56-2.6 4.56l1.06 3.65s45.46-22.53 51.2-26.73a19.46 19.46 0 0 0 6.13-7.9 2.75 2.75 0 0 0 .32-.7l.08-.26a19.76 19.76 0 0 0 1.03-3.5l3.12-10.54z" fill="#212B2C" stroke="#212B2C" stroke-miterlimit="10"/><path d="m123.33 29.81 3.38-11.44c.59-1.67 2-2.52 2.86-2.52m-10.52 12.5 3.8-12.9c.47-1.6 1.6-2.44 2.74-2.44" stroke="#fff" stroke-miterlimit="10"/><path d="M68.17 62.22a1.99 1.99 0 0 1-1.38-3.72l.5-.22 2.02-8.6s-7.39-2.28-9.38 5.1a933.77 933.77 0 0 0-4.26 17.06l16.48.57-3.98-10.19z" fill="#fff" stroke="#212B2C" stroke-miterlimit="10"/><path d="M112.95 29.07s.58-1.22 1.27-3.27c.85-2.56 2.27-9.38 2.27-9.38m-33.82 7.1s4.26 3.41 5.4 4.26c1.14.86.85 1.71.85 1.71m-7.39-5.4 2.85-2.84" stroke="#fff" stroke-miterlimit="10"/><path d="M121.64 57.06a2.56 2.56 0 1 0 0-5.12 2.56 2.56 0 0 0 0 5.12z" fill="#F1CE7A" stroke="#F1CE7A" stroke-miterlimit="10"/><path d="M121.64 76.39a2.56 2.56 0 1 0 0-5.12 2.56 2.56 0 0 0 0 5.12z" fill="#3356C9" stroke="#3356C9" stroke-miterlimit="10"/><path d="M152.06 76.39a2.56 2.56 0 1 0 0-5.12 2.56 2.56 0 0 0 0 5.12z" fill="#F1CE7A" stroke="#F1CE7A" stroke-miterlimit="10"/><path d="M152.06 57.06a2.56 2.56 0 1 0 0-5.12 2.56 2.56 0 0 0 0 5.12z" fill="#A5D8B9" stroke="#A5D8B9" stroke-miterlimit="10"/><path d="M152.06 25.8a2.56 2.56 0 1 0 0-5.12 2.56 2.56 0 0 0 0 5.12z" fill="#3356C9" stroke="#3356C9" stroke-miterlimit="10"/><path d="M134.02 92.94h12.8v14.7" stroke="#D6575F" stroke-miterlimit="10"/><path d="m146.81 113.27-3.23-7.92 3.23 1.88 3.24-1.88-3.24 7.92z" fill="#D6575F"/><path d="M134.02 95.64a2.56 2.56 0 1 0 0-5.11 2.56 2.56 0 0 0 0 5.11z" fill="#A5D8B9" stroke="#A5D8B9" stroke-miterlimit="10"/><path d="m70.6 86.27-3.88-5.48" stroke="#212B2C" stroke-miterlimit="10"/></svg>