<svg width="117" height="121" fill="none" xmlns="http://www.w3.org/2000/svg"><g clip-path="url(#a)"><path d="M51.76 13.75 22.87 31.76a7.5 7.5 0 0 0-2.7 9.78 7.54 7.54 0 0 0 8.96 3.74l7.8-2.45L14.32 72.6s-4 .1-6.7 2.97H3.1A2.74 2.74 0 0 0 .36 78.3a2.74 2.74 0 0 0 2.74 2.74h31.04l24.38-29.58 25.5 29.58h30.05a2.55 2.55 0 0 0 2.56-2.55 2.55 2.55 0 0 0-2.56-2.55h-3.81s-2.8-4.27-8.84-4.27l-20.1-27.26s6.5-6.77 2.14-15.76c-4.38-9-16.18-15.3-21.07-16.05-4.9-.74-10.64 1.15-10.64 1.15z" fill="#fff" stroke="#172E2B" stroke-miterlimit="10"/><path d="m36.77 13.53 23.2 64.19a3.27 3.27 0 0 0 4.18 1.96 3.25 3.25 0 0 0 1.97-4.17l-23.2-64.18a3.27 3.27 0 0 0-4.18-1.96 3.25 3.25 0 0 0-1.97 4.16z" fill="#172E2B"/><path d="m36.73 14.36 6.49-2.28m-5.88 3.3 6.42-2.25" stroke="#fff" stroke-miterlimit="10"/><path d="M81.32 44.4s-7.53 8.6-24.4 14.94a1.39 1.39 0 0 1-1.66-.58l-2.74-4.49a1.16 1.16 0 0 1 .46-1.64l6.85-3.51-3.63.17-.62-1.71c2.81-.25 3.8-1.92 6.86-.38l15.5-11.14" fill="#fff"/><path d="M81.32 44.4s-7.53 8.6-24.4 14.94a1.39 1.39 0 0 1-1.66-.58l-2.74-4.49a1.16 1.16 0 0 1 .46-1.64l6.85-3.51-3.63.17-.62-1.71c2.81-.25 3.8-1.92 6.86-.38l15.5-11.14m-1.2.97L67.62 24.3M52.77 55.02l5.58-2.93m-4.39 4.37 5.62-2.73m-4.72 4.38 5.94-2.52" stroke="#172E2B" stroke-miterlimit="10"/><path d="m56.18 67.21 6.15-2.17.68 1.87a25.89 25.89 0 0 0 7.42 10.78 3.86 3.86 0 0 1 1.27 3.63l-.76 4.07-8.17 3.03-3.53-2.35a3.59 3.59 0 0 1-1.53-3.7c.92-4.6.55-9.39-1.05-13.81l-.48-1.35z" fill="#172E2B"/><path d="m63.03 87.66 3.7 3.29 2.87-1.15.62-4.98-7.19 2.84z" fill="#172E2B"/><path d="M67.08 90.22 68.14 92a.7.7 0 0 0 1.27-.52l-.6-2.39-1.73 1.12z" fill="#172E2B"/><path d="M61.37 73.96a1 1 0 0 1-1.28-.62l-3.92-11.22a1 1 0 0 1 .62-1.27 1 1 0 0 1 1.29.61l3.91 11.22a1 1 0 0 1-.62 1.28z" fill="#fff" stroke="#fff" stroke-miterlimit="10"/><path d="M61.24 73.64a.63.63 0 0 1-.8-.39l-2.32-6.62a.63.63 0 0 1 1.2-.4l2.3 6.6a.63.63 0 0 1-.38.8z" fill="#172E2B" stroke="#172E2B" stroke-miterlimit="10"/><path d="M68.98 92.84h29.21" stroke="#172E2B" stroke-miterlimit="10"/><path d="M55.06 104.93H13.2L32.68 112l22.39-7.08zm.15 16.07-22.54-8.2-25.9 8.2h48.44zm-23.69-8.62-19.55-7.1-6.25 15.27 25.8-8.17zm24.78 8.22v-15.28l-22.47 7.11 22.47 8.17zm45.14-18.51 9.43 17.6H61.96v-17.6h39.48zm.79-1.3H60.65V121h52.4l-10.82-20.21z" fill="#FA555B"/><path d="M99.37 96.33H60.65m-32.28 4.09H56.3m-27.93-4.09H45.3" stroke="#172E2B" stroke-miterlimit="10"/><path d="M56.3 92.2H17.57l3.73-9.28h35v9.28z" fill="#FA555B"/><path d="m.36 77.93 8 1.44H27.9s4.24-4.97 10.73-3.78m40.9.28s5.97-.95 11.1 3.4h18.23l7.52-1.74M101.9 71.7c-2.53 0-3.75 1.31-5.03 2.85-.59.71-1.58.64-2.4.52a75.23 75.23 0 0 1-2.86-.46c-1.61-.3-3.22-.6-4.84-.87a49.69 49.69 0 0 0-9.83-.83m-63.3-.25c1.78-.29 3.04.42 3.51.68.96.52 1.87 1.2 2.91 1.54a6.4 6.4 0 0 0 3.47-.02c1.05-.26 2.05-.66 3.07-1.02 4.7-1.62 9.8-2.1 14.73-1.47" stroke="#172E2B" stroke-miterlimit="10"/><path d="M13.85 20.15a2.41 2.41 0 0 0 2.42-2.4 2.41 2.41 0 0 0-2.42-2.41 2.41 2.41 0 0 0-2.42 2.4 2.41 2.41 0 0 0 2.42 2.41zm84.96 1.7v5.5m0-16.97v5.13m3.13 3.35h5.52m-17.5 0h5.8" stroke="#FA555B" stroke-miterlimit="10"/><path d="m35.88 43.16 16.39-5.67a2.08 2.08 0 0 0 1.32-2.55c-.68-2.36-1.82-6.17-2.23-6.76-.87-1.23-2.54-.55-2.54-.55l.48 1.34-3.34 1.14 1.93-2.64a.94.94 0 0 0-.13-1.25.95.95 0 0 0-1.4.14 9.02 9.02 0 0 1-2.73 2.37 5.02 5.02 0 0 0-2.44 3l-14.31 4.89" fill="#fff"/><path d="m35.88 43.16 16.39-5.67a2.08 2.08 0 0 0 1.32-2.55c-.68-2.36-1.82-6.17-2.23-6.76-.87-1.23-2.54-.55-2.54-.55l.48 1.34-3.34 1.14 1.93-2.64a.94.94 0 0 0-.13-1.25.95.95 0 0 0-1.4.14 9.02 9.02 0 0 1-2.73 2.37 5.02 5.02 0 0 0-2.44 3l-14.31 4.89" stroke="#172E2B" stroke-miterlimit="10"/><path d="M51.7 28.93c.28.9.13 1.23.07 1.4a1.46 1.46 0 0 1-.75.83M52.4 31c.28.9.13 1.22.07 1.4a1.46 1.46 0 0 1-.75.82m1.3-.16c.28.9.14 1.22.07 1.4a1.46 1.46 0 0 1-.75.82" stroke="#172E2B" stroke-miterlimit="10"/><path d="M59.08 18.35c4.97 0 9-4.02 9-8.97a8.98 8.98 0 0 0-9-8.96c-4.96 0-9 4.01-9 8.96a8.98 8.98 0 0 0 9 8.97z" fill="#fff" stroke="#172E2B" stroke-miterlimit="10"/><path d="m57.51 18.21 1.57 3.88 1.57-3.88" stroke="#172E2B" stroke-miterlimit="10"/><path d="M59.08.42a8.98 8.98 0 0 0-8.66 11.38l10.23-4.94s1.22 4.17 7.27 4.22A8.97 8.97 0 0 0 59.08.42z" fill="#172E2B" stroke="#172E2B" stroke-miterlimit="10"/><path d="M53.55 13.48c-.03.41 0 1.03.3 1.36.28.3.85.28 1.16.04.34-.26.45-.73.53-1.15m7.03-.25c-.02.41 0 1.03.3 1.36.29.3.85.28 1.16.04.35-.26.46-.73.54-1.15M29.14 45.28l7.79-2.45" stroke="#172E2B" stroke-miterlimit="10"/><path d="m62.71 88.82 8.66-3.23m-4.84 5.6 3.38-1.38" stroke="#fff" stroke-miterlimit="10"/></g><defs><clipPath id="a"><path fill="#fff" d="M0 0h117v121H0z"/></clipPath></defs></svg>