<svg width="117" height="121" fill="none" xmlns="http://www.w3.org/2000/svg"><g clip-path="url(#prefix__clip0_387_583)"><path d="M51.755 13.747L22.872 31.76a7.491 7.491 0 00-2.709 9.782 7.543 7.543 0 008.972 3.739l7.794-2.45-22.611 29.763s-4.002.093-6.7 2.967H3.103A2.741 2.741 0 00.357 78.3a2.741 2.741 0 002.746 2.736h31.038l24.376-29.58 25.495 29.58h30.061a2.554 2.554 0 002.559-2.55 2.554 2.554 0 00-2.559-2.55h-3.818s-2.792-4.266-8.84-4.266l-20.1-27.26s6.514-6.77 2.14-15.764c-4.373-8.995-16.18-15.3-21.07-16.042-4.891-.742-10.63 1.144-10.63 1.144z" fill="#fff" stroke="#172E2B" stroke-miterlimit="10"/><path d="M36.773 13.532l23.2 64.185a3.268 3.268 0 004.178 1.959 3.25 3.25 0 001.966-4.163L42.916 11.326a3.268 3.268 0 00-4.178-1.958 3.25 3.25 0 00-1.965 4.163z" fill="#172E2B"/><path d="M36.733 14.36l6.486-2.28M37.344 15.383l6.415-2.255" stroke="#fff" stroke-miterlimit="10"/><path d="M81.316 44.408s-7.528 8.598-24.389 14.934a1.388 1.388 0 01-1.67-.577l-2.74-4.492a1.164 1.164 0 01.466-1.643l6.85-3.514-3.634.174-.618-1.71c2.811-.246 3.805-1.915 6.857-.38l15.494-11.14" fill="#fff"/><path d="M81.316 44.408s-7.528 8.598-24.389 14.934a1.388 1.388 0 01-1.67-.577l-2.74-4.492a1.164 1.164 0 01.466-1.643l6.85-3.514-3.634.174-.618-1.71c2.811-.246 3.805-1.915 6.857-.38l15.494-11.14M76.737 37.034L67.624 24.3M52.775 55.02l5.577-2.926M53.964 56.46l5.618-2.728M54.859 58.114l5.942-2.527" stroke="#172E2B" stroke-miterlimit="10"/><path d="M56.177 67.213l6.156-2.17.674 1.866a25.89 25.89 0 007.423 10.786 3.86 3.86 0 011.273 3.628l-.758 4.069-8.176 3.032-3.531-2.355a3.59 3.59 0 01-1.532-3.69c.92-4.615.559-9.394-1.042-13.82l-.487-1.346z" fill="#172E2B"/><path d="M63.033 87.662l3.69 3.284 2.874-1.144.621-4.986-7.185 2.846z" fill="#172E2B"/><path d="M67.078 90.215l1.06 1.79a.697.697 0 001.275-.52l-.598-2.383-1.737 1.113z" fill="#172E2B"/><path d="M61.373 73.963a1.009 1.009 0 01-1.284-.619l-3.917-11.22a1.004 1.004 0 01.62-1.278c.526-.183 1.1.094 1.284.618l3.917 11.22a1.004 1.004 0 01-.62 1.279z" fill="#fff" stroke="#fff" stroke-miterlimit="10"/><path d="M61.236 73.636a.63.63 0 01-.802-.386l-2.31-6.615a.63.63 0 011.19-.412l2.31 6.614a.627.627 0 01-.388.8z" fill="#172E2B" stroke="#172E2B" stroke-miterlimit="10"/><path d="M68.977 92.843H98.19" stroke="#172E2B" stroke-miterlimit="10"/><path d="M55.065 104.927H13.203l19.48 7.087 22.382-7.087zM55.208 121l-22.541-8.2L6.77 121h48.437zM31.52 112.383l-19.547-7.111-6.25 15.28 25.797-8.169zM56.296 120.604v-15.286l-22.466 7.113 22.466 8.173zM101.443 102.087l9.427 17.612H61.958v-17.612h39.485zm.784-1.301H60.652V121h52.395l-10.82-20.214z" fill="#FA555B"/><path d="M99.368 96.335H60.652M28.368 100.415h27.928M28.368 96.335h16.935" stroke="#172E2B" stroke-miterlimit="10"/><path d="M56.297 92.196h-38.73l3.73-9.272h35v9.272z" fill="#FA555B"/><path d="M.357 77.927l8.004 1.439h19.541s4.242-4.963 10.729-3.78M79.532 75.869s5.97-.953 11.089 3.405h18.238l7.525-1.746M101.9 71.7c-2.532 0-3.751 1.31-5.025 2.85-.59.714-1.587.636-2.413.52a75.235 75.235 0 01-2.85-.461c-1.612-.293-3.223-.596-4.84-.866-3.247-.542-6.535-.948-9.834-.837M13.638 72.656c1.78-.283 3.041.426 3.517.684.958.52 1.865 1.194 2.909 1.54 1.112.367 2.35.251 3.47-.023 1.047-.257 2.049-.662 3.067-1.014 4.704-1.625 9.792-2.105 14.73-1.478" stroke="#172E2B" stroke-miterlimit="10"/><path d="M13.848 20.151a2.412 2.412 0 002.417-2.407 2.412 2.412 0 00-2.417-2.408 2.412 2.412 0 00-2.416 2.408 2.412 2.412 0 002.416 2.407zM98.81 21.843c.01 1.86.01 3.627 0 5.503M98.81 10.377c.01 1.708.01 3.474 0 5.138M101.942 18.862c1.821.009 3.687.009 5.52 0M89.968 18.862c1.949.009 3.815.009 5.797 0" stroke="#FA555B" stroke-miterlimit="10"/><path d="M35.88 43.161l16.387-5.67a2.084 2.084 0 001.325-2.547c-.684-2.369-1.822-6.176-2.233-6.76-.865-1.23-2.543-.556-2.543-.556l.479 1.346-3.337 1.138 1.929-2.64a.942.942 0 00-.126-1.252.95.95 0 00-1.405.139c-.472.642-1.308 1.529-2.727 2.368-1.51.893-2.17 2.032-2.44 3.011l-14.31 4.88" fill="#fff"/><path d="M35.88 43.161l16.387-5.67a2.084 2.084 0 001.325-2.547c-.684-2.369-1.822-6.176-2.233-6.76-.865-1.23-2.543-.556-2.543-.556l.479 1.346-3.337 1.138 1.929-2.64a.942.942 0 00-.126-1.252.95.95 0 00-1.405.139c-.472.642-1.308 1.529-2.727 2.368-1.51.893-2.17 2.032-2.44 3.011l-14.31 4.88" stroke="#172E2B" stroke-miterlimit="10"/><path d="M51.701 28.933c.276.901.132 1.227.07 1.405a1.464 1.464 0 01-.752.818M52.41 31.008c.276.902.132 1.227.07 1.405a1.464 1.464 0 01-.752.818M53.035 33.065c.275.902.132 1.227.069 1.405a1.463 1.463 0 01-.752.818" stroke="#172E2B" stroke-miterlimit="10"/><path d="M59.082 18.347c4.968 0 8.995-4.013 8.995-8.963 0-4.95-4.027-8.964-8.995-8.964-4.967 0-8.995 4.013-8.995 8.964 0 4.95 4.028 8.963 8.995 8.963z" fill="#fff" stroke="#172E2B" stroke-miterlimit="10"/><path d="M57.512 18.21l1.57 3.882 1.57-3.881" stroke="#172E2B" stroke-miterlimit="10"/><path d="M59.082.42c-4.967 0-8.995 4.013-8.995 8.963 0 .837.116 1.647.331 2.415l10.235-4.94s1.214 4.168 7.263 4.224c.106-.55.162-1.118.162-1.7 0-4.949-4.028-8.962-8.996-8.962z" fill="#172E2B" stroke="#172E2B" stroke-miterlimit="10"/><path d="M53.548 13.477c-.028.413-.004 1.037.3 1.365.284.304.85.278 1.16.042.345-.266.452-.73.536-1.158M62.574 13.477c-.028.413-.005 1.037.3 1.365.283.304.85.278 1.159.042.346-.266.453-.73.536-1.158M29.135 45.281l7.794-2.45" stroke="#172E2B" stroke-miterlimit="10"/><path d="M62.713 88.824l8.657-3.239M66.53 91.197l3.383-1.392" stroke="#fff" stroke-miterlimit="10"/></g><defs><clipPath id="prefix__clip0_387_583"><path fill="#fff" d="M0 0h117v121H0z"/></clipPath></defs></svg>