<svg width="121" height="121" fill="none" xmlns="http://www.w3.org/2000/svg"><path d="m44.09 74.23 8.9-14.83 27.14-1.27 28.04 37.23c5.19 6.9.27 16.76-8.36 16.76H41.1l2.98-37.89z" fill="#fff" stroke="#172E2B" stroke-miterlimit="10"/><path d="M50.58 63.43s5.98 6.71 15.64 6.1c9.65-.63 15.76-5.45 16.84-7.52L100 84.53l-28.08 23.34h-23.7l-4.14-33.64 6.49-10.8z" fill="#FA555B"/><path d="M105.53 97.25s-2.85-3.24-11.35-5.56c-8.5-2.32-16.84-2.86-21.7-2.47-4.87.38-11.2 3.86-12.44 10.58-1.24 6.72 2.55 7.38 6.02 7.38h13.21s3.79-.43 4.25-4.75" fill="#fff"/><path d="M105.53 97.25s-2.85-3.24-11.35-5.56c-8.5-2.32-16.84-2.86-21.7-2.47-4.87.38-11.2 3.86-12.44 10.58-1.24 6.72 2.55 7.38 6.02 7.38h13.21s3.79-.43 4.25-4.75" stroke="#172E2B" stroke-miterlimit="10"/><path d="M75.25 97.1s-3.2 1.04-3.63 5.21c-.27 2.7-.54 4.87-.54 4.87m-2.05-10.66s-3.2 1.62-3.63 5.8c-.27 2.7-.54 4.86-.54 4.86m15.28-49.05 28.03 37.23M44.09 74.23l8.9-14.83" stroke="#172E2B" stroke-miterlimit="10"/><path d="m44.18 30.27-2.35-13.2 12.18 3.01" fill="#fff"/><path d="m44.18 30.27-2.35-13.2 12.18 3.01" stroke="#172E2B" stroke-miterlimit="10"/><path d="m74.05 19.28 12.17-6.45-.48 17.85" fill="#fff"/><path d="m74.05 19.28 12.17-6.45-.48 17.85" stroke="#172E2B" stroke-miterlimit="10"/><path d="M64.86 63.43a23.03 23.03 0 1 0 0-46.06 23.03 23.03 0 0 0 0 46.06z" fill="#fff" stroke="#172E2B" stroke-miterlimit="10"/><path d="M41.12 34.69h17.41s-.19 11.04-8.69 11.04c-8.34 0-8.72-11.04-8.72-11.04zm23.74 0h17.42s-.2 11.04-8.7 11.04c-8.33 0-8.72-11.04-8.72-11.04z" stroke="#172E2B" stroke-miterlimit="10"/><path d="M72.47 41.99a2.05 2.05 0 1 0 0-4.1 2.05 2.05 0 0 0 0 4.1zm-21.53 0a2.05 2.05 0 1 0 0-4.1 2.05 2.05 0 0 0 0 4.1z" fill="#172E2B"/><path d="M47.12 37.05s3.01 2.4 7.65 1.47l-7.65-1.47z" fill="#fff"/><path d="M47.12 37.05s3.01 2.4 7.65 1.47" stroke="#172E2B" stroke-miterlimit="10"/><path d="M58.41 38.48h6.45l-3.46 5.94-2.99-5.94z" fill="#172E2B" stroke="#172E2B" stroke-miterlimit="10"/><path d="M81.96 37.31h5.72m-21.62-6.64s.89 1.8 2.63 1.55c2.43-.35 5.36-5.8 9.11-3.56" stroke="#172E2B" stroke-miterlimit="10"/><path d="M86.51 48.26 82.82 63a10.25 10.25 0 0 1-9.94 7.77h-17.5a10.25 10.25 0 0 1-9.91-12.89l1.13-4.26" fill="#fff"/><path d="M86.51 48.26 82.82 63a10.25 10.25 0 0 1-9.94 7.77h-17.5a10.25 10.25 0 0 1-9.91-12.89l1.13-4.26" stroke="#172E2B" stroke-miterlimit="10"/><path d="M52.54 70.33a6.62 6.62 0 0 0 4.36-.61 7.14 7.14 0 0 0 3-3.47m-1.82 4.5c3.24 0 5.96-1.86 6.47-4.87m-1.14 4.88a4.16 4.16 0 0 0 3.38-1.5c.8-.83 1.3-1.9 1.61-3m-.35 4.5c1.8 0 2.9-1.12 3.54-2.22a9.4 9.4 0 0 0 .93-2.51m-11.07-22.3c.53 2.47-.14 5.4-1.56 6.4a5.23 5.23 0 0 1-2.88 1.13m1.18-2.83a6.65 6.65 0 0 1-4.1 5.2" stroke="#172E2B" stroke-miterlimit="10"/><path d="M54.93 50.14c-.01 1.64-.67 3.88-1.88 5.06a7.93 7.93 0 0 1-2.44 1.42m17.64-4.85c.26-.59.36-1.24.28-1.88-.03-.26-.1-.52-.24-.74a1.7 1.7 0 0 0-1.12-.68c-.44-.1-.9-.08-1.34-.12-2.75-.2-4.01-2.42-3.83-5.02m8.53 5.8c.47 1.4.42 2.82-.69 3.86m2.8-2.24a3.54 3.54 0 0 1-1.4 3.95m7.29-1.76c.57-.63.89-1.49.87-2.34m1.13 1.71a5.7 5.7 0 0 0 1.02-2.64m.88 1.62a4.95 4.95 0 0 0 .98-2.55m.83 1.8a5.77 5.77 0 0 0 1.19-3.19m-26.11 3.19s4.28 1.67 8.56-1.8" stroke="#172E2B" stroke-miterlimit="10"/><path d="m58.07 83.13-2.94-1.25v-.77l2.94-1.25v.92l-1.79.67-.18.04v.02l.18.05 1.79.65v.92zm.24.67 2.05-5.4h.92l-2.06 5.4h-.91z" fill="#fff"/><path d="M63.48 83.44a1.2 1.2 0 0 1-.58-.13 1.15 1.15 0 0 1-.41-.4l-.07.46h-.86v-4.62l-.53-.1v-.6h1.52v2.02a1.1 1.1 0 0 1 .94-.46c.3 0 .55.08.76.24.2.16.37.38.48.68.1.29.16.63.16 1.02v.08c0 .36-.06.68-.16.96a1.4 1.4 0 0 1-.48.63 1.3 1.3 0 0 1-.77.22zm-.3-.77c.25 0 .44-.1.55-.27.11-.19.17-.44.17-.78v-.07c0-.24-.03-.45-.08-.62a.83.83 0 0 0-.23-.4.57.57 0 0 0-.4-.15.69.69 0 0 0-.39.1.74.74 0 0 0-.25.3v1.54c.07.11.16.2.26.26a.75.75 0 0 0 .37.09zm3.98.77c-.36 0-.67-.08-.93-.24a1.57 1.57 0 0 1-.6-.66 2.2 2.2 0 0 1-.21-.98v-.07c0-.37.07-.7.2-.98a1.57 1.57 0 0 1 .6-.66c.26-.16.58-.24.94-.24s.68.08.94.24c.26.16.46.38.6.66.13.28.2.6.2.98v.07c0 .37-.07.7-.2.98a1.58 1.58 0 0 1-.6.66c-.26.16-.57.24-.94.24zm0-.76a.63.63 0 0 0 .43-.14.82.82 0 0 0 .24-.4c.05-.16.08-.36.08-.58v-.07c0-.22-.03-.41-.08-.58a.81.81 0 0 0-.25-.4.62.62 0 0 0-.42-.14.63.63 0 0 0-.43.15.8.8 0 0 0-.24.4 2 2 0 0 0-.08.57v.07c0 .22.03.42.08.59.05.17.13.3.24.39a.66.66 0 0 0 .43.14zm3.65.76c-.3 0-.55-.07-.76-.22a1.44 1.44 0 0 1-.48-.64 2.52 2.52 0 0 1-.17-.95v-.08c0-.39.05-.73.17-1.02.1-.29.27-.52.48-.68.21-.16.46-.24.75-.24a1.11 1.11 0 0 1 .93.46v-1.32l-.53-.1v-.6h1.53v4.62l.48.1v.6h-1.35l-.07-.45c-.12.17-.26.3-.42.39-.16.09-.35.13-.56.13zm.3-.77a.73.73 0 0 0 .36-.1.74.74 0 0 0 .26-.25v-1.57a.75.75 0 0 0-.26-.27.67.67 0 0 0-.36-.1.58.58 0 0 0-.41.15.88.88 0 0 0-.23.41c-.05.18-.08.38-.08.61v.08c0 .32.06.57.17.76.1.18.29.28.54.28zm3.44 2.2a1.73 1.73 0 0 1-.28-.03 2 2 0 0 1-.27-.06l.11-.73a1.58 1.58 0 0 0 .28.03.62.62 0 0 0 .37-.12.64.64 0 0 0 .23-.32l.08-.23-1.23-3.07-.46-.06v-.6h1.96v.6l-.45.06.58 1.63.07.2h.02l.7-1.83-.45-.06v-.6h1.83v.6l-.42.05-1.4 3.59a2 2 0 0 1-.27.47 1.16 1.16 0 0 1-.4.34c-.17.09-.37.13-.6.13zm3.5-1.7v-.93l1.8-.67.2-.04v-.02l-.2-.06-1.8-.64v-.92l2.98 1.25v.77l-2.98 1.26z" fill="#fff"/><path d="m39.88 79.64 9.33-10a9.84 9.84 0 0 0 1.2-11.86l-2.1-3.4 1.2-.61a3.57 3.57 0 0 0-3.13-6.42l-2.98 1.38s-.95-2.07-1.35-5.4H39.3a4.05 4.05 0 0 0-3.97 3.24l-1.6 7.72a12.32 12.32 0 0 0 2.16 9.85S19.26 79.4 19.49 79.6c.32.3 22.98 0 20.39.03z" fill="#fff" stroke="#172E2B" stroke-miterlimit="10"/><path d="m43.4 48.73-1.78.93a3.9 3.9 0 0 0-1.83 4.92l.68 1.68" stroke="#172E2B" stroke-miterlimit="10"/><path d="M14.4 112.74 7.2 72.65h44.96l6.37 34.99H89c0 2.54-2.05 5.07-4.59 5.09H14.39z" fill="#87DBB7"/><path d="M44.35 105a4.24 4.24 0 1 0 0-8.48 4.24 4.24 0 0 0 0 8.47z" fill="#FFD576" stroke="#fff" stroke-miterlimit="10"/><path d="m15.38 85.92 5.88-7.36 2.94 8.34-8.82-.98zm103.17 26.66H2.42v8.07h116.13v-8.07z" fill="#1C51DB"/></svg>