<svg width="32" height="32" fill="none" xmlns="http://www.w3.org/2000/svg">
  <style>
    path {
      fill: #282828
    }

    @media (prefers-color-scheme:dark) {
      path {
        fill: #fff
      }
    }
  </style>

  <path fill-rule="evenodd" clip-rule="evenodd"
    d="M29.895 19.133a25.74 25.74 0 0 0-.713-.669L18.549 8.912a3.242 3.242 0 0 1-.367-.379c-.224-.285-.404-.528-.404-.915 0-.371.187-.67.407-.929h11.794l-3.084 2.107h3.084v.82c0 .061-.002.119-.007.177-.052.637-.419 1.204-.935 1.557l-3.166 2.065h2.064c1.289 0 2.046.946 2.046 2.112v1.262l1.637 1.646v-3.123c0-1.43-.353-2.2-1.3-2.802a3.847 3.847 0 0 0 1.3-2.893V5h-20.96C4.782 5 0 9.935 0 16s4.782 11 10.658 11h20.698c.365-1.277.662-2.594.643-3.688-.028-1.474-.596-2.722-2.104-4.18ZM23.137 8.008h-3.126l1.824 1.574c.735-.148 1.275-.8 1.302-1.574ZM10.66 25.311h10.487c.197-.278.33-.604.335-.917.009-.43-.127-.775-.529-1.164 0 0-8.5-7.749-11.331-10.307-.197-.18-.361-.35-.513-.506a14.66 14.66 0 0 0-.23-.235c-1.29-1.262-1.56-3.222-.99-5.039-3.622 1.21-6.25 4.723-6.25 8.86 0 5.133 4.048 9.308 9.021 9.308Zm15.034-.002h-2.696c.145-.324.234-.661.234-.997 0-.767-.22-1.27-.83-1.957a7.35 7.35 0 0 0-.538-.55L10.707 11.63a5.12 5.12 0 0 1-.406-.419l-.106-.117C9.115 9.93 8.998 8.18 9.833 6.731c.27-.027.547-.041.825-.041h1.387c-.552 1.501-.297 2.906.942 4.182l.11.115c.105.11.205.214.306.308l11.598 10.671c.054.05.104.103.152.153.042.044.082.085.122.122.963.92 1.063 1.8.418 3.068Zm1.8 0h2.512c.198-.669.341-1.287.344-1.924 0-1.264-.587-1.983-1.628-3.004a17.68 17.68 0 0 0-.582-.536l-10.632-9.632c-.152-.137-.288-.28-.428-.426l-.15-.158c-.524-.54-.832-1.037-.832-1.938 0-.337.077-.675.206-1.001h-2.505c-.53.99-.458 2.165.421 3.07.088.094.18.186.274.275L26.09 20.707c.084.077.165.155.25.238l.167.16c1.42 1.363 1.613 2.618.986 4.204Z" />
</svg>
