<svg width="32" height="22" fill="none" xmlns="http://www.w3.org/2000/svg"><path fill-rule="evenodd" clip-rule="evenodd" d="m29.9 14.13-.72-.67-10.63-9.55a3.24 3.24 0 0 1-.37-.38c-.22-.28-.4-.53-.4-.91 0-.37.18-.67.4-.93h11.8l-3.09 2.1h3.09v1c-.06.64-.43 1.2-.94 1.56l-3.17 2.07h2.07c1.28 0 2.04.94 2.04 2.1v1.27l1.64 1.65V10.3c0-1.43-.36-2.2-1.3-2.8.8-.7 1.3-1.73 1.3-2.9V0H10.66C4.78 0 0 4.94 0 11s4.78 11 10.66 11h20.7c.36-1.28.66-2.6.64-3.69-.03-1.47-.6-2.72-2.1-4.18ZM23.13 3.01H20l1.83 1.57c.73-.15 1.27-.8 1.3-1.57ZM10.66 20.3h10.49c.2-.28.33-.6.33-.92.01-.43-.13-.77-.53-1.16 0 0-8.5-7.75-11.33-10.3l-.51-.51-.23-.24c-1.3-1.26-1.56-3.22-1-5.04A9.3 9.3 0 0 0 1.65 11c0 5.14 4.05 9.31 9.02 9.31Zm15.03 0H23c.15-.32.24-.66.24-1 0-.77-.22-1.27-.83-1.96a9.31 9.31 0 0 0-.54-.55L10.71 6.63a5.13 5.13 0 0 1-.52-.54 3.67 3.67 0 0 1-.36-4.36c.27-.03.55-.04.83-.04h1.38a3.74 3.74 0 0 0 1.06 4.3l.3.3L25 16.97l.15.15.12.12c.97.92 1.07 1.8.42 3.07Zm1.8 0h2.52c.2-.67.34-1.29.34-1.92 0-1.27-.59-1.99-1.63-3-.13-.14-.3-.3-.5-.47l-.08-.07L17.5 5.2a5.7 5.7 0 0 1-.43-.42l-.15-.16a2.5 2.5 0 0 1-.83-1.94c0-.34.07-.67.2-1h-2.5c-.53.99-.46 2.16.42 3.07l.27.27 11.6 10.68.25.23.17.16c1.42 1.37 1.61 2.62.98 4.2Z" fill="#fff"/></svg>