<svg width="121" height="121" fill="none" xmlns="http://www.w3.org/2000/svg"><path d="M49.24 31.05 38.6 20.75 66.99 3.21l20.13 18.13-13.57 7-24.31 2.71z" fill="#172E2B" stroke="#172E2B" stroke-miterlimit="10"/><path d="m49.64 30.51 4.75-16.46h19.16l1.2 11.75" stroke="#fff" stroke-miterlimit="10"/><path d="M87.12 22.95v8.1m0-8.1 2.2 7.2m-2.2-7.2 3.75 5.8m-3.75-5.8L93.07 27" stroke="#FFD576" stroke-miterlimit="10"/><path d="M87.25 24.57a1 1 0 1 0 0-2 1 1 0 0 0 0 2z" fill="#FFD576" stroke="#FFD576" stroke-miterlimit="10"/><path d="M67.64 46.77h-9.17v3.38h9.17v-3.38z" fill="#172E2B" stroke="#172E2B" stroke-miterlimit="10"/><path d="M63.27 47.9a14.03 14.03 0 1 0 0-28.07 14.03 14.03 0 0 0 0 28.07zm-5.5 1.5h10.47c1.13 0 2.04.95 1.98 2.08l-.14 2.53H55.65l.14-2.73a1.98 1.98 0 0 1 1.98-1.88zM37.01 81.83l1.77-16.4A12.78 12.78 0 0 1 51.48 54h18.56c7.06 0 12.78 5.73 12.78 12.79v15.03H37.01z" fill="#fff" stroke="#172E2B" stroke-miterlimit="10"/><path d="M49.24 81.83c2.25-21.17-4.8-25.7-4.8-25.7l-2.74 2.44s-2.54 3.3-2.92 6.85L37 81.83h12.23zm21.44 0c0-19.18 8.1-24.37 8.1-24.37s2.75 2.48 3.36 5.2c.6 2.71.68 19.17.68 19.17H70.68z" fill="#172E2B"/><path d="M17.8 57.82a3.38 3.38 0 0 0 2.15 2.3c1.03.37 2.17.34 3.23.1a9.11 9.11 0 0 0 6.92-8.56c0-.71-.08-1.45-.44-2.06-1.59-2.67-4.42.62-2.4 2.88 1.38 1.54 3.7 1.94 5.74 1.52 2.03-.43 3.84-1.54 5.6-2.63" stroke="#FA555B" stroke-miterlimit="10"/><path d="M73.52 25.8a3.7 3.7 0 0 0 0 7.4h3.76a13.95 13.95 0 0 0-2.54-7.4h-1.22z" fill="#FFD576" stroke="#172E2B" stroke-miterlimit="10"/><path d="M76.91 37.16c-8.73.87-10.16-3.96-10.16-3.96h-7.28s-2.37 4.77-9.96 3.4" stroke="#172E2B" stroke-miterlimit="10"/><path d="M59.3 40.98h7.3c.37 0 .53-.48.23-.7a6.25 6.25 0 0 0-3.78-1.15 6.56 6.56 0 0 0-3.97 1.18c-.3.2-.14.67.22.67z" fill="#172E2B" stroke="#172E2B" stroke-miterlimit="10"/><path d="M56.3 29.5a3.7 3.7 0 0 0-3.7-3.7h-.8a13.95 13.95 0 0 0-2.55 7.4h3.34a3.7 3.7 0 0 0 3.7-3.7z" fill="#FFD576" stroke="#172E2B" stroke-miterlimit="10"/><path d="M49.24 33.87a14.03 14.03 0 1 1 28.06 0" stroke="#172E2B" stroke-miterlimit="10"/><path d="M27.67 81.19h65.24l15.91 29.64H8.8l18.88-29.64z" fill="#FA555B"/><path d="M8.79 113.24h100.03" stroke="#87DBB7" stroke-miterlimit="10"/><path d="m32.72 101.06 6.86-15.9 6.3-1.75a16.8 16.8 0 0 1 13.04 1.74l.12-.07a16.8 16.8 0 0 1 12.72-1.87l7.74 1.94 6 15.92H32.73z" fill="#fff"/><path d="m32.72 104.04 24.57-1.4-1 2.26h6.24l-1.49-2.25 24.47 1.72" stroke="#1C51DB" stroke-miterlimit="10"/><path d="m58.92 87.22-.45 11.42" stroke="#87DBB7" stroke-miterlimit="10"/><path d="M93.74 73a2.01 2.01 0 1 0 0-4.02 2.01 2.01 0 0 0 0 4.03z" stroke="#FFD576" stroke-miterlimit="10"/><path d="m83.31 52.36.7-1.59c.92-2.09 3-2.48 4.63-.86l.4.4c1.6 1.58 3.64 1.24 4.58-.75l.13-.28c.94-1.98 2.95-2.33 4.55-.79 1.61 1.56 3.65 1.19 4.58-.85l.06-.14c.89-1.96 2.82-2.4 4.42-1l.65.58c1.53 1.34 3.38 1 4.32-.79l.9-1.73" stroke="#87DBB7" stroke-miterlimit="10"/><path d="M18.36 22.5a2.68 2.68 0 0 1 1.58-3.53 2.67 2.67 0 0 1 3.28 2.02c.18 1.07-.32 2.12-.67 3.15-.35 1.03-.52 2.28.19 3.1m.6.8.63.81" stroke="#fff" stroke-miterlimit="10"/></svg>